<?xml version="1.0" standalone="no"?>
<!DOCTYPE svg PUBLIC "-//W3C//DTD SVG 20010904//EN"
 "http://www.w3.org/TR/2001/REC-SVG-20010904/DTD/svg10.dtd">
<svg version="1.0" xmlns="http://www.w3.org/2000/svg"
 width="2200.000000pt" height="2200.000000pt" viewBox="0 0 2200.000000 2200.000000"
 preserveAspectRatio="xMidYMid meet">
<metadata>
Created by potrace 1.14, written by Peter Selinger 2001-2017
</metadata>
<g transform="translate(0.000000,2200.000000) scale(0.100000,-0.100000)"
fill="#000000" stroke="none">
<path d="M0 11000 l0 -11000 11000 0 11000 0 0 11000 0 11000 -11000 0 -11000
0 0 -11000z m21480 0 l0 -10480 -10485 0 -10485 0 0 10480 0 10480 10485 0
10485 0 0 -10480z"/>
<path d="M802 13088 l3 -8113 23 -59 c65 -171 198 -303 361 -359 l66 -22 5152
-5 5152 -5 -82 -142 -82 -143 -5062 0 -5062 0 -79 -25 c-185 -58 -332 -218
-377 -407 -22 -96 -22 -2472 0 -2567 46 -195 193 -350 395 -418 53 -17 363
-18 10018 -21 l9962 -2 0 1474 c0 1032 -3 1491 -11 1528 -40 193 -196 358
-399 423 -68 22 58 20 -2771 49 -1957 19 -2188 23 -2210 37 -14 9 -400 626
-904 1444 -638 1036 -888 1433 -910 1447 -39 25 -99 19 -131 -14 -12 -13 -320
-601 -684 -1308 -364 -707 -728 -1401 -808 -1543 l-147 -257 -175 -127 c-96
-70 -224 -162 -283 -205 -89 -65 -106 -74 -93 -51 8 15 162 285 343 599 259
450 494 884 1118 2062 435 820 792 1492 795 1492 3 -1 469 -747 1035 -1660
l1030 -1660 2380 2 2380 3 62 23 c183 69 321 218 367 398 15 56 16 778 16
7902 0 5651 -3 7856 -11 7894 -40 192 -192 354 -399 424 -53 18 -330 19
-10018 22 l-9962 2 2 -8112z"/>
</g>
</svg>
